<svg width="286" height="290" viewBox="0 0 286 290" fill="none" xmlns="http://www.w3.org/2000/svg">
<path d="M11.6494 81.5962C7.84818 80.2334 5.02885 81.1178 3.18468 82.4977C1.27516 83.9265 0.867676 86.4763 0.867676 88.8612V273.62C0.867676 282.457 8.03111 289.62 16.8677 289.62H269.942C278.778 289.62 285.942 282.457 285.942 273.62V22.9984C285.942 14.1619 278.778 6.99844 269.942 6.99844H155.72C154.382 6.99844 153.004 7.12653 151.937 7.93284C149.601 9.69816 146.385 14.0473 144.672 22.8796C142.677 33.172 134.538 34.6163 129.572 33.9487C128.558 33.8124 127.596 33.4422 126.67 33.0072L96.7374 18.9457C79.0204 9.27134 77.0195 17.0516 78.2336 22.1511C80.6066 34.7751 75.4755 36.7261 71.0231 35.809C69.0715 35.407 67.4893 34.0727 66.1368 32.6095C59.2803 25.1919 52.3757 17.9416 46.6453 12.175C39.8445 5.33118 35.3646 8.317 39.1446 17.1939C42.8511 25.8983 47.148 35.2971 48.5111 39.0521C52.836 57.5412 44.3729 59.4059 38.5896 57.8344C37.712 57.596 36.9015 57.1707 36.1095 56.7238C32.093 54.4576 29.0272 53.3909 27.2117 52.9724C26.2712 52.7556 25.302 52.6188 24.3455 52.4896C14.2509 51.1264 14.7769 61.4082 17.5997 66.7396C17.9683 67.4358 18.385 68.1147 18.7044 68.8348C24.3981 81.6717 16.3766 83.0143 11.6494 81.5962Z" fill="white"/>
</svg>
