<svg width="195" height="49" viewBox="0 0 195 49" fill="none" xmlns="http://www.w3.org/2000/svg">
<path d="M0.81039 10.1148H23.4203V14.4909H14.7491V36.1688H9.48156V14.4909H0.81039V10.1148ZM21.1211 17.9351H26.2266V20.6499C27.3071 18.84 28.9414 17.9351 31.1294 17.9351H33.2769V22.3112H31.251C29.1169 22.3112 27.7663 22.8379 27.199 23.8914C26.6317 24.9179 26.3481 27.16 26.3481 30.6177V36.1688H21.1211V17.9351ZM33.9284 31.1444C33.9284 27.1465 38.264 24.9314 46.9352 24.4992H47.2998V24.2156C47.2998 22.3247 46.0843 21.3792 43.6531 21.3792C42.6266 21.3792 41.8162 21.5413 41.2219 21.8655C40.6547 22.1896 40.3305 22.5138 40.2495 22.8379L40.1279 23.3242H34.8198C34.8198 23.1621 34.8469 22.9595 34.9009 22.7164C34.9549 22.4462 35.1575 21.987 35.5087 21.3387C35.8598 20.6634 36.3191 20.0691 36.8863 19.5558C37.4536 19.0426 38.3315 18.5834 39.5201 18.1782C40.7087 17.746 42.0998 17.5299 43.6936 17.5299C46.557 17.5299 48.718 18.1242 50.1767 19.3127C51.6624 20.4743 52.4053 22.0951 52.4053 24.1751L52.4458 29.4831V30.4961C52.4458 30.9823 52.5134 31.32 52.6484 31.5091C52.8105 31.6982 53.0941 31.7927 53.4993 31.7927H54.0261V36.1688H53.4588C51.811 36.1688 50.5549 36.0203 49.6905 35.7231C48.8261 35.399 48.2048 34.8182 47.8266 33.9808C46.3949 35.7096 44.1393 36.574 41.0598 36.574C38.6827 36.574 36.8998 36.0608 35.7113 35.0343C34.5227 34.0078 33.9284 32.7112 33.9284 31.1444ZM39.277 31.0229C39.277 31.5631 39.5336 31.9818 40.0469 32.279C40.5601 32.5761 41.2084 32.7382 41.9918 32.7652C42.0458 32.7652 42.0998 32.7652 42.1539 32.7652C43.3965 32.7652 44.558 32.414 45.6385 31.7117C46.7461 31.0093 47.2998 30.0234 47.2998 28.7538V27.7003C46.2193 27.7813 45.3414 27.8623 44.6661 27.9434C44.0178 28.0244 43.2074 28.173 42.2349 28.3891C41.2624 28.6052 40.5196 28.9429 40.0063 29.4021C39.5201 29.8343 39.277 30.3745 39.277 31.0229ZM58.4899 17.9351L63.7574 30.6987L69.0655 17.9351H74.5356L66.3507 36.1688H61.1642L53.0197 17.9351H58.4899ZM76.3675 20.1636C78.0963 18.4078 80.4735 17.5299 83.4989 17.5299C86.4704 17.5299 88.78 18.4078 90.4278 20.1636C92.1026 21.8925 92.94 24.2021 92.94 27.0925C92.94 27.5787 92.913 28.0784 92.8589 28.5917H78.8797C78.9878 29.7803 79.474 30.7257 80.3384 31.4281C81.2299 32.1304 82.3104 32.4816 83.58 32.4816C84.1743 32.4816 84.701 32.414 85.1602 32.279C85.6465 32.1439 86.0111 31.9953 86.2543 31.8332C86.5244 31.6442 86.7405 31.4551 86.9026 31.266C87.0917 31.0769 87.2132 30.9148 87.2673 30.7797L87.3483 30.5771H92.5753C92.5483 30.7392 92.4808 30.9553 92.3727 31.2255C92.2917 31.4956 92.035 31.9818 91.6028 32.6842C91.1976 33.3595 90.6979 33.9673 90.1036 34.5075C89.5093 35.0208 88.6314 35.4935 87.4699 35.9257C86.3083 36.3579 84.9982 36.574 83.5395 36.574C80.6221 36.574 78.2584 35.7231 76.4486 34.0213C74.6657 32.2925 73.7743 29.9829 73.7743 27.0925C73.7743 24.2561 74.6387 21.9465 76.3675 20.1636ZM87.875 25.107C87.875 25.08 87.875 25.0395 87.875 24.9855C87.875 23.959 87.4699 23.1486 86.6595 22.5543C85.8491 21.933 84.8091 21.6223 83.5395 21.6223C82.2428 21.6223 81.1758 21.9465 80.3384 22.5948C79.528 23.2431 79.0418 24.0805 78.8797 25.107H87.875ZM95.1176 10.1148H100.345V30.4151C100.345 30.9283 100.439 31.293 100.628 31.5091C100.817 31.6982 101.168 31.7927 101.682 31.7927H103.14V36.1688H101.682C99.1695 36.1688 97.4407 35.7906 96.4952 35.0343C95.5768 34.2779 95.1176 32.7382 95.1176 30.4151V10.1148Z" fill="#292C27"/>
<path d="M103.926 27.0925C103.926 24.2561 104.804 21.96 106.56 20.2042C108.316 18.4483 110.572 17.5704 113.327 17.5704C113.624 17.5704 113.921 17.5839 114.218 17.6109C116.433 17.719 118.135 18.6239 119.324 20.3257V17.9351H124.429V37.8706C124.429 40.2208 123.957 41.7605 123.011 42.4899C122.093 43.2192 120.377 43.5839 117.865 43.5839H105.669V39.2888H117.865C118.378 39.2888 118.73 39.1808 118.919 38.9647C119.108 38.7756 119.202 38.4109 119.202 37.8706V33.8592C118.068 35.453 116.433 36.3309 114.299 36.493C113.921 36.52 113.543 36.5335 113.165 36.5335C110.491 36.5335 108.276 35.6961 106.52 34.0213C104.791 32.3195 103.926 30.0099 103.926 27.0925ZM109.235 27.0925C109.235 28.7943 109.707 30.1044 110.653 31.0229C111.625 31.9413 112.841 32.4005 114.299 32.4005C115.812 32.4005 117.028 31.9413 117.946 31.0229C118.865 30.1044 119.324 28.7808 119.324 27.0519C119.324 25.1881 118.865 23.8374 117.946 23C117.055 22.1356 115.839 21.7034 114.299 21.7034C112.814 21.7034 111.598 22.1761 110.653 23.1216C109.707 24.04 109.235 25.3636 109.235 27.0925ZM127.168 17.9351H132.274V20.6499C133.354 18.84 134.988 17.9351 137.176 17.9351H139.324V22.3112H137.298C135.164 22.3112 133.813 22.8379 133.246 23.8914C132.679 24.9179 132.395 27.16 132.395 30.6177V36.1688H127.168V17.9351ZM139.976 31.1444C139.976 27.1465 144.311 24.9314 152.982 24.4992H153.347V24.2156C153.347 22.3247 152.131 21.3792 149.7 21.3792C148.674 21.3792 147.863 21.5413 147.269 21.8655C146.702 22.1896 146.378 22.5138 146.297 22.8379L146.175 23.3242H140.867C140.867 23.1621 140.894 22.9595 140.948 22.7164C141.002 22.4462 141.205 21.987 141.556 21.3387C141.907 20.6634 142.366 20.0691 142.933 19.5558C143.501 19.0426 144.379 18.5834 145.567 18.1782C146.756 17.746 148.147 17.5299 149.741 17.5299C152.604 17.5299 154.765 18.1242 156.224 19.3127C157.71 20.4743 158.452 22.0951 158.452 24.1751L158.493 29.4831V30.4961C158.493 30.9823 158.56 31.32 158.696 31.5091C158.858 31.6982 159.141 31.7927 159.546 31.7927H160.073V36.1688H159.506C157.858 36.1688 156.602 36.0203 155.738 35.7231C154.873 35.399 154.252 34.8182 153.874 33.9808C152.442 35.7096 150.186 36.574 147.107 36.574C144.73 36.574 142.947 36.0608 141.758 35.0343C140.57 34.0078 139.976 32.7112 139.976 31.1444ZM145.324 31.0229C145.324 31.5631 145.581 31.9818 146.094 32.279C146.607 32.5761 147.256 32.7382 148.039 32.7652C148.093 32.7652 148.147 32.7652 148.201 32.7652C149.444 32.7652 150.605 32.414 151.686 31.7117C152.793 31.0093 153.347 30.0234 153.347 28.7538V27.7003C152.266 27.7813 151.388 27.8623 150.713 27.9434C150.065 28.0244 149.254 28.173 148.282 28.3891C147.31 28.6052 146.567 28.9429 146.053 29.4021C145.567 29.8343 145.324 30.3745 145.324 31.0229ZM167.172 17.9351V20.5283C168.334 18.6104 170.144 17.6109 172.602 17.5299C172.71 17.5299 172.832 17.5299 172.967 17.5299C176.235 17.5299 178.437 18.6509 179.571 20.893C180.976 18.7319 183.056 17.6109 185.811 17.5299C185.973 17.5299 186.122 17.5299 186.257 17.5299C188.958 17.5299 190.89 18.2727 192.051 19.7584C193.213 21.2171 193.794 23.3917 193.794 26.2821V36.1688H188.567V26.2821C188.567 24.7693 188.256 23.6213 187.635 22.8379C187.04 22.0545 186.203 21.6629 185.122 21.6629C183.475 21.6629 182.3 22.1626 181.597 23.1621C180.922 24.1616 180.584 25.7148 180.584 27.8218V36.1688H175.357V26.2821C175.357 24.7693 175.047 23.6213 174.425 22.8379C173.831 22.0545 172.994 21.6629 171.913 21.6629C170.265 21.6629 169.09 22.1626 168.388 23.1621C167.713 24.1616 167.375 25.7148 167.375 27.8218V36.1688H162.148V17.9351H167.172Z" fill="#30AF5B"/>
</svg>
