<svg width="195" height="49" viewBox="0 0 195 49" fill="none" xmlns="http://www.w3.org/2000/svg">
<path d="M0.81039 9.94597H23.4203V14.3221H14.7491V36H9.48156V14.3221H0.81039V9.94597ZM21.1211 17.7662H26.2266V20.481C27.3071 18.6712 28.9414 17.7662 31.1294 17.7662H33.2769V22.1423H31.251C29.1169 22.1423 27.7663 22.6691 27.199 23.7226C26.6317 24.7491 26.3481 26.9912 26.3481 30.4488V36H21.1211V17.7662ZM33.9284 30.9756C33.9284 26.9777 38.264 24.7626 46.9352 24.3304H47.2998V24.0468C47.2998 22.1558 46.0843 21.2104 43.6531 21.2104C42.6266 21.2104 41.8162 21.3725 41.2219 21.6966C40.6547 22.0208 40.3305 22.3449 40.2495 22.6691L40.1279 23.1553H34.8198C34.8198 22.9932 34.8469 22.7906 34.9009 22.5475C34.9549 22.2774 35.1575 21.8182 35.5087 21.1699C35.8598 20.4945 36.3191 19.9003 36.8863 19.387C37.4536 18.8738 38.3315 18.4145 39.5201 18.0093C40.7087 17.5771 42.0998 17.361 43.6936 17.361C46.557 17.361 48.718 17.9553 50.1767 19.1439C51.6624 20.3055 52.4053 21.9262 52.4053 24.0062L52.4458 29.3143V30.3273C52.4458 30.8135 52.5134 31.1512 52.6484 31.3403C52.8105 31.5294 53.0941 31.6239 53.4993 31.6239H54.0261V36H53.4588C51.811 36 50.5549 35.8514 49.6905 35.5543C48.8261 35.2301 48.2048 34.6494 47.8266 33.8119C46.3949 35.5408 44.1393 36.4052 41.0598 36.4052C38.6827 36.4052 36.8998 35.8919 35.7113 34.8655C34.5227 33.839 33.9284 32.5423 33.9284 30.9756ZM39.277 30.854C39.277 31.3943 39.5336 31.813 40.0469 32.1101C40.5601 32.4073 41.2084 32.5694 41.9918 32.5964C42.0458 32.5964 42.0998 32.5964 42.1539 32.5964C43.3965 32.5964 44.558 32.2452 45.6385 31.5429C46.7461 30.8405 47.2998 29.8545 47.2998 28.5849V27.5314C46.2193 27.6125 45.3414 27.6935 44.6661 27.7745C44.0178 27.8556 43.2074 28.0042 42.2349 28.2203C41.2624 28.4364 40.5196 28.774 40.0063 29.2332C39.5201 29.6655 39.277 30.2057 39.277 30.854ZM58.4899 17.7662L63.7574 30.5299L69.0655 17.7662H74.5356L66.3507 36H61.1642L53.0197 17.7662H58.4899ZM76.3675 19.9948C78.0963 18.239 80.4735 17.361 83.4989 17.361C86.4704 17.361 88.78 18.239 90.4278 19.9948C92.1026 21.7236 92.94 24.0332 92.94 26.9236C92.94 27.4099 92.913 27.9096 92.8589 28.4229H78.8797C78.9878 29.6114 79.474 30.5569 80.3384 31.2592C81.2299 31.9616 82.3104 32.3127 83.58 32.3127C84.1743 32.3127 84.701 32.2452 85.1602 32.1101C85.6465 31.9751 86.0111 31.8265 86.2543 31.6644C86.5244 31.4753 86.7405 31.2862 86.9026 31.0971C87.0917 30.9081 87.2132 30.746 87.2673 30.6109L87.3483 30.4083H92.5753C92.5483 30.5704 92.4808 30.7865 92.3727 31.0566C92.2917 31.3268 92.035 31.813 91.6028 32.5153C91.1976 33.1906 90.6979 33.7984 90.1036 34.3387C89.5093 34.8519 88.6314 35.3247 87.4699 35.7569C86.3083 36.1891 84.9982 36.4052 83.5395 36.4052C80.6221 36.4052 78.2584 35.5543 76.4486 33.8525C74.6657 32.1236 73.7743 29.814 73.7743 26.9236C73.7743 24.0873 74.6387 21.7777 76.3675 19.9948ZM87.875 24.9382C87.875 24.9112 87.875 24.8706 87.875 24.8166C87.875 23.7901 87.4699 22.9797 86.6595 22.3855C85.8491 21.7642 84.8091 21.4535 83.5395 21.4535C82.2428 21.4535 81.1758 21.7777 80.3384 22.426C79.528 23.0743 79.0418 23.9117 78.8797 24.9382H87.875ZM95.1176 9.94597H100.345V30.2462C100.345 30.7595 100.439 31.1242 100.628 31.3403C100.817 31.5294 101.168 31.6239 101.682 31.6239H103.14V36H101.682C99.1695 36 97.4407 35.6218 96.4952 34.8655C95.5768 34.1091 95.1176 32.5694 95.1176 30.2462V9.94597Z" fill="white"/>
<path d="M103.926 26.9236C103.926 24.0873 104.804 21.7912 106.56 20.0353C108.316 18.2795 110.572 17.4016 113.327 17.4016C113.624 17.4016 113.921 17.4151 114.218 17.4421C116.433 17.5501 118.135 18.4551 119.324 20.1569V17.7662H124.429V37.7018C124.429 40.0519 123.957 41.5917 123.011 42.321C122.093 43.0504 120.377 43.4151 117.865 43.4151H105.669V39.12H117.865C118.378 39.12 118.73 39.0119 118.919 38.7958C119.108 38.6068 119.202 38.2421 119.202 37.7018V33.6904C118.068 35.2842 116.433 36.1621 114.299 36.3242C113.921 36.3512 113.543 36.3647 113.165 36.3647C110.491 36.3647 108.276 35.5273 106.52 33.8525C104.791 32.1506 103.926 29.841 103.926 26.9236ZM109.235 26.9236C109.235 28.6255 109.707 29.9356 110.653 30.854C111.625 31.7725 112.841 32.2317 114.299 32.2317C115.812 32.2317 117.028 31.7725 117.946 30.854C118.865 29.9356 119.324 28.6119 119.324 26.8831C119.324 25.0192 118.865 23.6686 117.946 22.8312C117.055 21.9668 115.839 21.5345 114.299 21.5345C112.814 21.5345 111.598 22.0073 110.653 22.9527C109.707 23.8712 109.235 25.1948 109.235 26.9236ZM127.168 17.7662H132.274V20.481C133.354 18.6712 134.988 17.7662 137.176 17.7662H139.324V22.1423H137.298C135.164 22.1423 133.813 22.6691 133.246 23.7226C132.679 24.7491 132.395 26.9912 132.395 30.4488V36H127.168V17.7662ZM139.976 30.9756C139.976 26.9777 144.311 24.7626 152.982 24.3304H153.347V24.0468C153.347 22.1558 152.131 21.2104 149.7 21.2104C148.674 21.2104 147.863 21.3725 147.269 21.6966C146.702 22.0208 146.378 22.3449 146.297 22.6691L146.175 23.1553H140.867C140.867 22.9932 140.894 22.7906 140.948 22.5475C141.002 22.2774 141.205 21.8182 141.556 21.1699C141.907 20.4945 142.366 19.9003 142.933 19.387C143.501 18.8738 144.379 18.4145 145.567 18.0093C146.756 17.5771 148.147 17.361 149.741 17.361C152.604 17.361 154.765 17.9553 156.224 19.1439C157.71 20.3055 158.452 21.9262 158.452 24.0062L158.493 29.3143V30.3273C158.493 30.8135 158.56 31.1512 158.696 31.3403C158.858 31.5294 159.141 31.6239 159.546 31.6239H160.073V36H159.506C157.858 36 156.602 35.8514 155.738 35.5543C154.873 35.2301 154.252 34.6494 153.874 33.8119C152.442 35.5408 150.186 36.4052 147.107 36.4052C144.73 36.4052 142.947 35.8919 141.758 34.8655C140.57 33.839 139.976 32.5423 139.976 30.9756ZM145.324 30.854C145.324 31.3943 145.581 31.813 146.094 32.1101C146.607 32.4073 147.256 32.5694 148.039 32.5964C148.093 32.5964 148.147 32.5964 148.201 32.5964C149.444 32.5964 150.605 32.2452 151.686 31.5429C152.793 30.8405 153.347 29.8545 153.347 28.5849V27.5314C152.266 27.6125 151.388 27.6935 150.713 27.7745C150.065 27.8556 149.254 28.0042 148.282 28.2203C147.31 28.4364 146.567 28.774 146.053 29.2332C145.567 29.6655 145.324 30.2057 145.324 30.854ZM167.172 17.7662V20.3595C168.334 18.4416 170.144 17.4421 172.602 17.361C172.71 17.361 172.832 17.361 172.967 17.361C176.235 17.361 178.437 18.4821 179.571 20.7242C180.976 18.5631 183.056 17.4421 185.811 17.361C185.973 17.361 186.122 17.361 186.257 17.361C188.958 17.361 190.89 18.1039 192.051 19.5896C193.213 21.0483 193.794 23.2229 193.794 26.1132V36H188.567V26.1132C188.567 24.6005 188.256 23.4525 187.635 22.6691C187.04 21.8857 186.203 21.494 185.122 21.494C183.475 21.494 182.3 21.9938 181.597 22.9932C180.922 23.9927 180.584 25.546 180.584 27.653V36H175.357V26.1132C175.357 24.6005 175.047 23.4525 174.425 22.6691C173.831 21.8857 172.994 21.494 171.913 21.494C170.265 21.494 169.09 21.9938 168.388 22.9932C167.713 23.9927 167.375 25.546 167.375 27.653V36H162.148V17.7662H167.172Z" fill="#30AF5B"/>
</svg>
